<svg width="997" height="624" viewBox="0 0 997 624" fill="none" xmlns="http://www.w3.org/2000/svg">
<g filter="url(#filter0_f_1_65)">
<ellipse cx="504.5" cy="574.5" rx="452.5" ry="5" fill="black"/>
</g>
<path d="M126 1.5H886C900.912 1.5 913 13.5883 913 28.5V550.5C913 552.157 911.657 553.5 910 553.5H102C100.343 553.5 99 552.157 99 550.5V28.5C99 13.5883 111.088 1.5 126 1.5Z" fill="#1A202C" stroke="#4A5568" stroke-width="2"/>
<path d="M103 27.5C103 15.3497 112.85 5.5 125 5.5H887C899.15 5.5 909 15.3497 909 27.5V533.5H103V27.5Z" fill="black"/>
<rect x="124" y="33.5" width="761" height="478" fill="#B6EDFF"/>
<g clip-path="url(#clip0_1_65)">
<path d="M476.202 204.873C490.149 222.08 504.877 236.977 525.824 244.611C512.422 246.839 498.66 245.514 485.947 240.773C473.234 236.031 462.027 228.042 453.472 217.624L476.202 204.873Z" fill="#F6BD96"/>
<path d="M452.058 155.876C450.707 157.446 459.986 178.03 461.308 180.979C463.066 184.863 465.185 188.578 467.637 192.076C469.615 194.928 475.302 199.033 476.105 202.067C476.222 202.73 476.17 203.411 475.953 204.049C475.735 204.687 475.36 205.261 474.861 205.72C473.857 206.625 472.777 207.445 471.633 208.171C468.935 210.173 466.94 212.958 465.929 216.135C465.399 217.813 465 219.789 463.439 220.636C462.673 220.96 461.823 221.036 461.011 220.854C460.199 220.671 459.467 220.24 458.919 219.621C447.792 208.284 437.556 194.426 431.598 179.533L452.058 155.876Z" fill="#667CD7"/>
<path d="M480.914 209.145C476.391 210.235 472.197 212.375 468.683 215.388C465.168 218.4 462.433 222.197 460.707 226.463C458.775 226.464 456.881 225.934 455.239 224.931C453.596 223.928 452.27 222.493 451.41 220.787C450.584 219.066 450.118 217.199 450.038 215.297C449.958 213.395 450.267 211.496 450.945 209.714C452.329 206.15 454.568 202.97 457.469 200.446C461.335 196.901 466.972 193.687 472.458 194.389C477.74 195.059 479.2 204.761 480.914 209.145Z" fill="#576FD2"/>
<path d="M428.891 307.529H422.462V444.024H428.891V307.529Z" fill="#6D6E71"/>
<path d="M505.532 276.591L549.201 289.035L429.715 323.538C429.715 323.538 322.558 320.199 317.72 176.124L414.763 154.801C414.763 154.801 418.319 230.281 437.797 249.737C457.274 269.193 505.532 276.591 505.532 276.591Z" fill="#EE8D1B"/>
<path d="M513.769 275.277L557.439 287.722L437.952 322.224C437.952 322.224 330.794 318.894 325.954 174.814L422.998 153.492C422.998 153.492 426.553 228.971 446.031 248.427C465.509 267.883 513.769 275.277 513.769 275.277Z" fill="#FFA82F"/>
<path d="M413.992 366.763C413.246 369.184 411.212 371.386 408.684 371.318C406.88 371.27 405.545 365.929 405.038 364.732C404.005 362.299 403.481 359.803 402.608 357.296C401.648 353.828 400.945 350.295 400.506 346.726C399.679 342.236 398.797 337.722 398.227 333.19C397.811 329.873 397.64 326.191 399.687 323.528C401.953 320.584 406.09 319.932 409.814 319.479C413.539 319.026 417.676 318.341 419.902 315.366L425.214 327.16C425.494 327.674 425.653 328.244 425.678 328.828C425.583 331.634 413.207 336.943 413.969 358.002C414.067 360.715 414.723 363.455 414.163 366.114C414.113 366.334 414.059 366.549 413.992 366.763Z" fill="#D24242"/>
<path d="M568.829 458.857C570.972 460.248 572.54 462.792 571.761 465.166C571.206 466.861 523.365 466.667 521.896 465.808C519.244 464.256 520.294 461.92 520.612 459.579C521.056 456.311 521.767 453.006 522 449.721C522.078 448.606 522.653 438.497 520.514 438.778L533.478 437.077C534.058 436.956 534.658 436.967 535.233 437.107C537.934 437.989 539.608 451.2 560.305 456.423C562.972 457.089 565.823 457.248 568.251 458.528C568.445 458.62 568.64 458.735 568.829 458.857Z" fill="#D24242"/>
<path d="M410.926 274.513C425.712 285.585 444.525 290.723 463.088 290.899C481.65 291.075 500.012 286.536 517.265 279.779C533.155 273.558 543.206 272.747 558.752 265.778C561.837 264.396 563.862 255.893 559.575 250.366C556.928 246.954 558.507 243.604 554.4 243.224C522.772 240.293 491.272 244.749 460.831 253.688C443.461 258.772 426.722 265.758 410.926 274.513Z" fill="#2C2C4C"/>
<path d="M461.328 331.076C452.834 327.586 444.303 324.178 435.836 320.628C428.282 317.46 420.064 315.659 412.546 312.149C405.577 308.893 399.074 304.309 394.69 298.05C391.841 293.983 389.914 288.917 391.058 284.102C395.046 267.324 425.107 268.576 437.903 270.514C473.091 275.829 516.716 304.196 530.281 337.622C537.082 354.377 543.526 413.275 543.526 444.655L520.046 447.369C512.455 419.009 504.864 390.649 497.272 362.287C495.866 357.032 494.386 351.63 491.044 347.304C486.588 341.536 479.469 338.512 472.679 335.731L461.328 331.076Z" fill="#4C4C75"/>
<path d="M416.484 311.837C426.74 314.901 437.354 316.532 447.868 318.468C462.257 321.118 477.896 324.108 489.332 333.802C495.391 338.939 499.272 345.94 502.46 353.061C505.829 360.839 508.535 368.88 510.55 377.102C512.609 385.085 514.254 393.164 515.888 401.24C517.778 410.609 520.093 419.89 522.322 429.181C523.715 434.985 525.104 440.801 526.449 446.624L520.046 447.363C512.455 419.004 504.864 390.643 497.272 362.282C495.866 357.026 494.386 351.625 491.044 347.299C486.588 341.531 479.467 338.507 472.679 335.725L461.336 331.076C452.842 327.585 444.311 324.178 435.844 320.628C428.29 317.46 420.072 315.659 412.554 312.149C409.259 310.623 406.129 308.773 403.211 306.625C407.461 308.768 411.904 310.513 416.484 311.837Z" fill="#39395C"/>
<path d="M369.597 147.714C375.762 142.666 382.549 138.406 389.795 135.034C396.42 131.782 403.581 128.338 411.174 128.506C415.975 128.61 420.729 129.465 425.259 131.037C431.207 133.154 436.654 136.45 441.263 140.722C445.872 144.994 449.546 150.151 452.058 155.876C455.327 163.436 456.991 171.575 456.949 179.794C456.649 188.531 454.672 196.949 455.027 205.827C455.382 214.693 456.746 223.493 459.093 232.059C460.205 236.113 461.279 241.752 463.448 245.37C465.518 248.822 466.476 250.727 463.941 254.568C461.983 257.539 458.85 259.52 455.813 261.41C448.479 265.974 441.069 270.567 432.992 273.753C428.925 275.264 424.73 276.413 420.455 277.187C416.165 278.063 411.92 280.003 407.744 281.484C402.527 283.336 396.723 285.188 391.583 283.132C386.657 281.163 383.792 276.169 381.47 271.453C371.097 250.38 364.926 227.68 358.132 205.304C352.08 185.367 352.536 162.295 369.597 147.714Z" fill="#7E8EE8"/>
<path d="M417.083 140.442L414.113 142.242C413.978 141.634 413.822 141.056 413.693 140.442H417.083Z" fill="#A6A8AB"/>
<path d="M405.029 145.251C403.279 145.226 401.552 144.862 399.945 144.178C398.339 143.495 396.884 142.506 395.665 141.268C394.446 140.03 393.486 138.568 392.84 136.964C392.194 135.36 391.874 133.646 391.899 131.92L392.619 82.4871L419.26 82.8654L418.54 132.299C418.49 135.784 417.038 139.106 414.504 141.535C411.97 143.964 408.562 145.301 405.029 145.251Z" fill="#F6BD96"/>
<path d="M394.871 107.559L392.619 82.4897L419.26 82.8681L418.54 132.301C418.494 134.473 417.897 136.598 416.804 138.484C402.382 133.845 397.762 121.098 394.871 107.559Z" fill="#E7A579"/>
<path d="M417.083 134.703C446.751 145.3 453.813 77.4836 423.665 65.9165C377.313 48.1337 378.851 121.043 417.083 134.703Z" fill="#F6BD96"/>
<path d="M393.78 109.7C393.674 111.839 393.097 113.93 392.091 115.828C392.496 115.13 389.255 109.637 388.884 108.768C385.995 101.999 383.062 95.0465 382.787 87.705C382.68 85.193 382.977 82.6802 383.666 80.2597C390.886 55.3898 426.468 59.6021 443.28 71.2623C444.853 72.2256 446.182 73.5311 447.164 75.0789C447.837 76.4704 448.104 78.0197 447.934 79.5524C447.763 81.0852 447.163 82.5407 446.2 83.7552C442.261 88.9772 432.738 91.3071 426.452 91.2845C419.105 91.3226 412.038 88.5075 406.777 83.4475C407.339 87.3391 406.609 91.3055 404.697 94.7543C402.785 98.203 399.793 100.949 396.169 102.582C395.39 101.197 394.1 101.32 392.862 102.329C394.177 104.729 393.925 106.973 393.78 109.7Z" fill="#ED5830"/>
<path d="M441.364 113.665C440.023 113.674 438.708 113.294 437.583 112.572C436.925 112.163 436.364 111.617 435.939 110.973C435.515 110.329 435.237 109.602 435.126 108.842C435.03 108.079 435.104 107.304 435.342 106.572C435.58 105.839 435.977 105.167 436.504 104.601C437.631 103.365 439.172 102.573 440.844 102.372C444.42 101.903 447.664 104.04 448.082 107.136C448.178 107.899 448.104 108.674 447.867 109.407C447.629 110.139 447.232 110.812 446.705 111.379C445.577 112.613 444.036 113.404 442.364 113.606C442.032 113.648 441.698 113.667 441.364 113.665ZM441.826 103.081C441.531 103.081 441.237 103.101 440.944 103.139C439.462 103.317 438.094 104.016 437.093 105.108C436.641 105.592 436.301 106.166 436.097 106.792C435.892 107.418 435.827 108.08 435.907 108.733C436.003 109.384 436.241 110.006 436.605 110.557C436.969 111.107 437.45 111.573 438.015 111.922C439.279 112.701 440.779 113.02 442.255 112.825C443.732 112.631 445.094 111.935 446.107 110.856C446.559 110.373 446.899 109.799 447.104 109.174C447.309 108.548 447.374 107.886 447.294 107.233C447.043 106.007 446.352 104.911 445.347 104.148C444.343 103.385 443.092 103.006 441.826 103.081Z" fill="#808184"/>
<path d="M424.726 115.856C423.385 115.865 422.07 115.485 420.945 114.764C420.286 114.353 419.725 113.806 419.301 113.161C418.877 112.516 418.6 111.787 418.489 111.026C418.393 110.262 418.467 109.488 418.705 108.755C418.943 108.023 419.339 107.35 419.866 106.784C421.005 105.564 422.541 104.776 424.208 104.557C425.874 104.338 427.565 104.702 428.988 105.585C429.653 105.989 430.219 106.534 430.645 107.18C431.07 107.827 431.345 108.558 431.448 109.322C431.551 110.086 431.481 110.863 431.243 111.597C431.004 112.33 430.603 113.003 430.068 113.565C428.942 114.799 427.4 115.59 425.728 115.791C425.396 115.834 425.062 115.856 424.726 115.856ZM425.198 105.271C424.9 105.271 424.603 105.291 424.308 105.331C422.825 105.507 421.457 106.206 420.457 107.3C420.004 107.782 419.663 108.357 419.458 108.982C419.253 109.608 419.189 110.27 419.27 110.923C419.366 111.574 419.604 112.196 419.968 112.746C420.332 113.297 420.813 113.763 421.378 114.112C422.641 114.891 424.141 115.21 425.618 115.015C427.094 114.821 428.456 114.125 429.469 113.047C429.928 112.568 430.273 111.994 430.478 111.368C430.683 110.741 430.744 110.076 430.656 109.424C430.567 108.771 430.332 108.145 429.968 107.593C429.603 107.042 429.118 106.577 428.548 106.234C427.551 105.596 426.386 105.261 425.198 105.271Z" fill="#808184"/>
<path d="M396.911 102.153L396.631 102.943L418.623 110.541L418.903 109.752L396.911 102.153Z" fill="#808184"/>
<path d="M431.176 108.892L430.698 108.202C431.404 107.734 432.21 107.433 433.053 107.323C433.897 107.214 434.754 107.298 435.559 107.569L435.254 108.349C434.577 108.126 433.858 108.059 433.151 108.153C432.444 108.247 431.768 108.499 431.176 108.892Z" fill="#808184"/>
<path d="M396.773 102.548C396.324 101.818 395.627 101.269 394.807 101C394.396 100.875 393.956 100.877 393.546 101.007C393.137 101.137 392.778 101.387 392.518 101.725C392.308 102.158 392.208 102.635 392.228 103.115C392.247 103.595 392.384 104.063 392.628 104.478C393.701 106.588 395.099 108.52 396.773 110.206V102.548Z" fill="#F6BD96"/>
<path d="M432.819 122.402C432.704 122.403 432.593 122.361 432.508 122.284C432.422 122.208 432.369 122.103 432.359 121.989C432.349 121.876 432.382 121.763 432.453 121.673C432.523 121.583 432.625 121.522 432.738 121.503C433.483 121.369 434.209 121.145 434.899 120.837C435.396 120.617 435.658 120.4 435.726 120.155C435.818 119.82 435.55 119.406 435.29 119.007L435.224 118.903C433.27 115.868 433.604 111.886 433.836 108.978C433.851 108.863 433.911 108.757 434.002 108.684C434.094 108.611 434.211 108.575 434.328 108.585C434.446 108.594 434.555 108.648 434.634 108.735C434.713 108.822 434.754 108.935 434.75 109.051C434.456 112.648 434.345 115.845 435.999 118.418L436.064 118.518C436.285 118.774 436.449 119.073 436.543 119.396C436.638 119.72 436.661 120.059 436.612 120.392C436.498 120.688 436.319 120.955 436.088 121.175C435.857 121.394 435.579 121.561 435.275 121.663C434.515 122.001 433.715 122.246 432.893 122.392C432.869 122.397 432.844 122.401 432.819 122.402Z" fill="#E7A579"/>
<path d="M429.998 126.411C429.667 126.411 429.339 126.399 429.013 126.377C428.891 126.369 428.778 126.314 428.697 126.223C428.617 126.133 428.577 126.014 428.585 125.894C428.593 125.774 428.65 125.663 428.741 125.584C428.833 125.505 428.953 125.465 429.075 125.473C430.995 125.6 432.921 125.327 434.729 124.673C434.843 124.632 434.969 124.637 435.08 124.687C435.191 124.738 435.277 124.83 435.319 124.943C435.361 125.055 435.356 125.18 435.305 125.289C435.253 125.399 435.16 125.483 435.046 125.525C433.429 126.109 431.72 126.409 429.998 126.411Z" fill="#D79468"/>
<path d="M508.126 255.273C526.827 247.569 552.495 236.166 571.96 248.786C578.226 252.849 583.147 259.667 583.42 267.197C583.717 275.349 578.558 282.861 571.987 287.472C565.417 292.084 557.539 294.318 549.825 296.478L489.528 313.361C477.723 316.666 465.933 320.652 454.054 323.582C444.89 325.837 421.124 334.665 421.124 334.665C421.124 334.665 414.283 324.408 411.821 315.366C439.051 288.021 472.621 269.899 508.126 255.273Z" fill="#4C4C75"/>
<path d="M480.982 268.359C472.78 273.278 464.847 278.621 457.216 284.367C453.674 287.053 450.302 289.94 446.795 292.666C443.591 295.159 440.252 297.478 436.888 299.755C428.661 305.325 419.907 310.8 412.519 317.566C412.271 316.83 412.017 316.092 411.82 315.366C434.371 292.72 461.281 276.405 490.03 263.157C487.004 264.874 483.96 266.56 480.982 268.359Z" fill="#39395C"/>
<path d="M430.339 330.976C440.157 327.38 450.202 324.495 460.072 321.06C477.388 315.032 493.816 306.918 510.55 299.524C520.476 295.139 530.911 291.954 540.959 287.853C550.826 283.828 560.983 279.084 568.641 271.557C572.098 268.261 574.772 264.251 576.473 259.814C577.144 257.908 577.597 255.933 577.824 253.928C581.147 257.605 583.118 262.279 583.417 267.197C583.714 275.349 578.556 282.861 571.983 287.472C565.411 292.084 557.534 294.318 549.823 296.478L489.525 313.361C477.72 316.666 465.93 320.652 454.051 323.582C444.887 325.837 421.121 334.665 421.121 334.665L421.048 334.556C424.13 333.32 427.221 332.115 430.339 330.976Z" fill="#39395C"/>
<path d="M395.428 217.053C396.847 217.832 397.976 219.038 398.652 220.495C403.404 229.327 412.661 235.342 421.338 240.544C426.19 243.453 431.247 246.014 436.471 248.207C439.413 249.442 447.718 254.038 450.836 253.174C434.134 257.806 420.766 253.818 404.861 249.286C392.094 245.647 380.906 239.683 373.206 228.372C371.237 225.482 382.929 220.151 384.538 219.392C388.664 217.461 392.387 215.576 395.428 217.053Z" fill="#F6BD96"/>
<path d="M361.272 171.709C361.813 168.548 363.058 165.545 364.918 162.917C369.975 156.004 378.016 157.122 382.524 163.751C384.08 166.251 385.252 168.965 386.004 171.803C389.292 182.533 390.237 193.402 392.418 204.291C393.079 208.402 394.28 212.411 395.989 216.217C391.513 216.442 387.144 217.651 383.203 219.756C379.261 221.86 375.845 224.807 373.206 228.381C371.29 225.58 369.638 222.611 368.272 219.512C364.183 210.172 362.341 200.072 361.373 189.994C360.823 184.279 360.128 177.704 361.272 171.709Z" fill="#7E8EE8"/>
<path d="M385.273 182.918C384.545 177.673 383.5 172.476 382.141 167.355C381.397 164.752 380.267 162.272 378.789 159.994C380.268 160.994 381.536 162.268 382.522 163.745C384.078 166.246 385.251 168.959 386.002 171.798C389.29 182.527 390.236 193.396 392.416 204.285C393.078 208.397 394.279 212.406 395.988 216.212C393.705 216.28 391.441 216.641 389.252 217.286C387.124 205.933 387.309 194.295 385.273 182.918Z" fill="#A5B4F6"/>
<path d="M369.213 221.405C368.904 220.771 368.551 220.147 368.268 219.506C364.635 210.68 362.377 201.362 361.571 191.87C362.297 193.785 363.103 195.674 363.952 197.521C365.911 201.783 371.042 215.136 372.269 216.799C370.214 218.696 370.597 219.011 369.213 221.405Z" fill="#576FD2"/>
<path d="M401.333 221.847C396.81 222.937 392.616 225.077 389.101 228.089C385.586 231.102 382.852 234.899 381.126 239.165C379.194 239.166 377.3 238.636 375.657 237.633C374.015 236.63 372.688 235.195 371.827 233.489C371.002 231.768 370.536 229.901 370.457 227.999C370.377 226.096 370.686 224.198 371.364 222.416C372.748 218.852 374.986 215.672 377.886 213.148C381.754 209.603 387.392 206.389 392.882 207.091C398.158 207.761 399.616 217.461 401.333 221.847Z" fill="#576FD2"/>
<path d="M425.677 441.014L486.505 452.223H364.847L425.677 441.014Z" fill="#6D6E71"/>
<path d="M451.896 244.136C457.856 244.561 463.511 246.903 467.992 250.804C457.533 252.552 446.709 254.289 436.427 251.714C430.278 250.174 435.844 247.717 438.439 246.651C442.66 244.775 447.272 243.913 451.896 244.136Z" fill="#F6BD96"/>
<path d="M302.943 256.831L296.542 258.451L355.186 484.002L361.587 482.382L302.943 256.831Z" fill="#A6A8AB"/>
<path d="M294.667 256.835L235.979 482.375L242.38 483.996L301.068 258.456L294.667 256.835Z" fill="#A6A8AB"/>
<path d="M715.355 256.825L708.953 258.445L767.601 483.996L774.003 482.376L715.355 256.825Z" fill="#A6A8AB"/>
<path d="M707.08 256.837L648.392 482.377L654.793 483.998L713.481 258.458L707.08 256.837Z" fill="#A6A8AB"/>
<path d="M746.775 249.454H260.941V265.308H746.775V249.454Z" fill="#FF7E19"/>
<path d="M655.256 179.537L655.721 180.894L654.801 180.873L655.256 179.537Z" fill="#808184"/>
<path d="M653.664 184.206L654.801 180.873L655.721 180.894L656.881 184.283L656.879 184.331L653.664 184.239V184.206Z" fill="#FFA82F"/>
<path d="M656.879 184.331L655.841 226.772L652.624 226.697L653.664 184.239L656.879 184.331Z" fill="#808184"/>
<path d="M641.578 193.902L647.092 225.854C647.199 226.476 647.051 227.114 646.682 227.628C646.312 228.143 645.75 228.491 645.12 228.597C644.987 228.621 644.851 228.632 644.715 228.632C644.147 228.63 643.597 228.431 643.163 228.069C642.729 227.707 642.439 227.206 642.343 226.653L636.841 194.791L641.578 193.902Z" fill="#20A7F7"/>
<path d="M635.911 189.398C635.858 189.091 635.866 188.775 635.937 188.471C636.007 188.166 636.137 187.878 636.32 187.624C636.503 187.369 636.736 187.152 637.004 186.986C637.272 186.819 637.57 186.707 637.882 186.654C638.194 186.602 638.514 186.61 638.823 186.68C639.131 186.749 639.423 186.878 639.681 187.058C639.94 187.239 640.159 187.468 640.328 187.732C640.497 187.997 640.611 188.291 640.664 188.599L641.041 190.784L636.298 191.642L635.911 189.398Z" fill="#FA9E9E"/>
<path d="M641.041 190.784L641.578 193.902L636.841 194.791L636.298 191.642L641.041 190.784Z" fill="#D0CCC8"/>
<path d="M666.864 194.955L663.165 224.86C663.129 225.148 663.037 225.427 662.892 225.68C662.747 225.932 662.554 226.154 662.322 226.333C662.09 226.512 661.825 226.644 661.541 226.722C661.258 226.8 660.962 226.822 660.67 226.787C660.543 226.772 660.418 226.746 660.297 226.709C659.791 226.559 659.356 226.238 659.067 225.802C658.778 225.366 658.654 224.843 658.717 224.326L662.406 194.505L666.864 194.955Z" fill="#00B580"/>
<path d="M663.03 189.458C663.06 189.166 663.148 188.881 663.29 188.623C663.433 188.364 663.626 188.136 663.859 187.952C664.091 187.768 664.359 187.632 664.646 187.551C664.933 187.471 665.233 187.447 665.529 187.483C665.826 187.518 666.112 187.612 666.371 187.758C666.63 187.904 666.857 188.099 667.038 188.333C667.219 188.567 667.352 188.834 667.427 189.118C667.502 189.403 667.519 189.7 667.477 189.991L667.224 192.035L662.768 191.557L663.03 189.458Z" fill="#FA9E9E"/>
<path d="M667.224 192.036L666.864 194.955L662.406 194.505L662.771 191.558L667.224 192.036Z" fill="#D0CCC8"/>
<path d="M660.004 195.968L654.98 217.371L658.112 218.087L663.136 196.684L660.004 195.968Z" fill="#FF7E19"/>
<path d="M651.245 187.668L651.64 189.045L650.723 188.979L651.245 187.668Z" fill="#00B580"/>
<path d="M649.416 192.251L650.723 188.979L651.64 189.045L652.624 192.489L652.62 192.537L649.413 192.284L649.416 192.251Z" fill="#FFA82F"/>
<path d="M652.62 192.537L649.394 234.871L646.186 234.634L649.413 192.284L652.62 192.537Z" fill="#1A1A3A"/>
<path d="M673.906 188.074L674.079 189.584L673.131 189.359L673.906 188.074Z" fill="#18A2F7"/>
<path d="M671.197 192.561L673.131 189.359L674.079 189.584L674.511 193.352L674.499 193.4L671.188 192.596L671.197 192.561Z" fill="#FFA82F"/>
<path d="M674.499 193.4L663.792 237.148L660.477 236.359L671.188 192.596L674.499 193.4Z" fill="#18A2F7"/>
<path d="M645.316 183.473L645.858 184.803L644.938 184.832L645.316 183.473Z" fill="#FFA82F"/>
<path d="M643.993 188.222L644.938 184.832L645.858 184.803L647.208 188.122L647.209 188.17L643.993 188.256V188.222Z" fill="#D0D2D3"/>
<path d="M647.209 188.17L648.581 230.602L645.366 230.704L643.993 188.256L647.209 188.17Z" fill="#FFA82F"/>
<path d="M645.474 249.701H663.91L670.338 214.376H639.045L645.474 249.701Z" fill="#ED5830"/>
<path d="M477.538 249.771H600.051L617.008 170.146H494.496L477.538 249.771Z" fill="#BBBDBF"/>
<path d="M547.273 213.994C549.532 213.994 551.363 212.187 551.363 209.959C551.363 207.73 549.532 205.924 547.273 205.924C545.014 205.924 543.183 207.73 543.183 209.959C543.183 212.187 545.014 213.994 547.273 213.994Z" fill="white"/>
</g>
<path d="M486.081 545.5V539.774H486.151L488.227 544.415H489.344L491.413 539.774H491.483V545.5H493.026V536.835H491.293L488.817 542.428H488.767L486.297 536.835H484.552V545.5H486.081ZM498.497 544.681H498.567V545.5H500.148V540.949C500.148 539.381 498.967 538.657 497.418 538.657C495.476 538.657 494.752 539.698 494.702 540.822H496.263C496.308 540.282 496.701 539.92 497.387 539.92C498.091 539.92 498.497 540.295 498.497 540.968V541.577H496.853C495.292 541.577 494.454 542.352 494.454 543.558C494.454 544.827 495.355 545.602 496.669 545.602C497.66 545.602 498.231 545.176 498.497 544.681ZM497.209 544.383C496.65 544.383 496.117 544.078 496.117 543.45C496.117 542.936 496.479 542.58 497.215 542.58H498.497V543.291C498.497 543.945 497.926 544.383 497.209 544.383ZM501.475 542.377C501.475 544.338 502.604 545.621 504.464 545.621C506.058 545.621 507.137 544.821 507.276 543.316H505.734C505.658 543.831 505.296 544.281 504.553 544.281C503.69 544.281 503.15 543.558 503.15 542.371V541.837C503.15 540.688 503.677 539.978 504.547 539.978C505.169 539.978 505.613 540.46 505.702 541.019H507.245C507.206 539.724 506.172 538.645 504.471 538.645C502.592 538.645 501.475 539.952 501.475 541.818V542.377ZM512.259 545.589C513.821 545.589 514.83 544.434 514.83 542.421V541.831C514.83 539.774 513.795 538.676 512.266 538.676C511.377 538.676 510.628 539.114 510.33 539.743H510.26V536.378H508.584V545.5H510.234V544.459H510.298C510.634 545.151 511.307 545.589 512.259 545.589ZM511.732 544.256C510.825 544.256 510.247 543.602 510.247 542.358V541.901C510.247 540.657 510.831 540.016 511.732 540.016C512.551 540.016 513.116 540.663 513.116 541.901V542.364C513.116 543.596 512.551 544.256 511.732 544.256ZM519.045 538.645C517.058 538.645 515.96 540.009 515.96 541.869V542.364C515.96 544.319 517.058 545.621 519.045 545.621C521.032 545.621 522.123 544.319 522.123 542.358V541.863C522.123 540.003 521.025 538.645 519.045 538.645ZM519.045 539.939C520.01 539.939 520.435 540.765 520.435 541.863V542.383C520.435 543.45 520.016 544.319 519.045 544.319C518.067 544.319 517.648 543.443 517.648 542.383V541.863C517.648 540.771 518.08 539.939 519.045 539.939ZM526.332 538.645C524.345 538.645 523.247 540.009 523.247 541.869V542.364C523.247 544.319 524.345 545.621 526.332 545.621C528.319 545.621 529.411 544.319 529.411 542.358V541.863C529.411 540.003 528.312 538.645 526.332 538.645ZM526.332 539.939C527.297 539.939 527.722 540.765 527.722 541.863V542.383C527.722 543.45 527.303 544.319 526.332 544.319C525.354 544.319 524.935 543.443 524.935 542.383V541.863C524.935 540.771 525.367 539.939 526.332 539.939ZM532.489 543.189L532.965 542.631L534.889 545.5H536.863L534.241 541.672L536.698 538.765H534.762L532.565 541.533H532.489V536.378H530.813V545.5H532.489V543.189ZM541.211 545.5L541.896 543.272H544.785L545.464 545.5H547.286L544.397 536.835H542.385L539.478 545.5H541.211ZM543.388 538.492L544.442 541.996H542.252L543.312 538.492H543.388ZM548.174 537.096C548.174 537.616 548.606 537.972 549.12 537.972C549.641 537.972 550.066 537.616 550.066 537.096C550.066 536.575 549.641 536.213 549.12 536.213C548.606 536.213 548.174 536.575 548.174 537.096ZM548.288 545.5H549.958V538.765H548.288V545.5ZM551.691 545.5H553.398V541.66C553.398 540.758 553.779 540.098 554.877 540.098C555.138 540.098 555.404 540.117 555.538 540.155V538.708C555.404 538.683 555.233 538.664 555.004 538.664C554.084 538.664 553.582 539.26 553.43 539.692H553.36V538.765H551.691V545.5Z" fill="#A0AEC0"/>
<path d="M0 552.5C0 551.395 0.895431 550.5 2 550.5H1006C1007.1 550.5 1008 551.395 1008 552.5V556.5H0V552.5Z" fill="#A3ACB1"/>
<path d="M0 552.5C0 551.395 0.895431 550.5 2 550.5H1006C1007.1 550.5 1008 551.395 1008 552.5V556.5H0V552.5Z" fill="url(#paint0_linear_1_65)"/>
<path d="M0 556.5H1008L987.646 560.605C961.613 565.855 935.123 568.5 908.566 568.5H97.9089C68.724 568.5 39.6267 565.306 11.1367 558.975L0 556.5Z" fill="#647279"/>
<path d="M0 556.5H1008L987.646 560.605C961.613 565.855 935.123 568.5 908.566 568.5H97.9089C68.724 568.5 39.6267 565.306 11.1367 558.975L0 556.5Z" fill="url(#paint1_linear_1_65)"/>
<path fill-rule="evenodd" clip-rule="evenodd" d="M430.033 550.5C430.547 553.851 428.052 556.5 436 556.5H573C580.948 556.5 578.453 553.851 578.967 550.5H430.033Z" fill="#96A1A8"/>
<path fill-rule="evenodd" clip-rule="evenodd" d="M430.033 550.5C430.547 553.851 428.052 556.5 436 556.5H573C580.948 556.5 578.453 553.851 578.967 550.5H430.033Z" fill="url(#paint2_linear_1_65)"/>
<defs>
<filter id="filter0_f_1_65" x="8" y="525.5" width="993" height="98" filterUnits="userSpaceOnUse" color-interpolation-filters="sRGB">
<feFlood flood-opacity="0" result="BackgroundImageFix"/>
<feBlend mode="normal" in="SourceGraphic" in2="BackgroundImageFix" result="shape"/>
<feGaussianBlur stdDeviation="22" result="effect1_foregroundBlur_1_65"/>
</filter>
<linearGradient id="paint0_linear_1_65" x1="-1.94452e-10" y1="553.5" x2="1008" y2="553.5" gradientUnits="userSpaceOnUse">
<stop stop-color="#0D1012"/>
<stop offset="0.0295345" stop-color="#CAD4DB"/>
<stop offset="0.0625" stop-color="#242729"/>
<stop offset="0.133609" stop-color="#A3ACB1"/>
<stop offset="0.865967" stop-color="#A3ACB1"/>
<stop offset="0.941937" stop-color="#242729"/>
<stop offset="0.971275" stop-color="#CAD4DB"/>
<stop offset="0.996436" stop-color="#0D1012"/>
</linearGradient>
<linearGradient id="paint1_linear_1_65" x1="504" y1="556.5" x2="504" y2="568.5" gradientUnits="userSpaceOnUse">
<stop stop-color="#7A7F83"/>
<stop offset="1" stop-color="#0B0B0E"/>
</linearGradient>
<linearGradient id="paint2_linear_1_65" x1="437.5" y1="554.143" x2="574.5" y2="554.143" gradientUnits="userSpaceOnUse">
<stop stop-color="#3C3C3C"/>
<stop offset="0.317518" stop-color="#3C3C3C" stop-opacity="0"/>
<stop offset="0.660584" stop-color="#3C3C3C" stop-opacity="0"/>
<stop offset="1" stop-color="#444444"/>
</linearGradient>
<clipPath id="clip0_1_65">
<rect width="538" height="422" fill="white" transform="translate(236 62)"/>
</clipPath>
</defs>
</svg>
